<svg class="icon" viewBox="0 0 1024 1024" xmlns="http://www.w3.org/2000/svg" width="200" height="200"><path d="M843.668.539c26.57 0 48.074 21.558 48.074 48.02v180.548l-96.094 96.04V96.633H123.042v768.7h672.606V732.808l96.094-96.095v276.642c0 26.516-21.558 48.02-48.074 48.02h-768.7a48.02 48.02 0 0 1-48.02-47.966V48.505C26.947 22.097 48.504.54 74.967.54h768.7zm85.423 327.033l67.962 68.015-373.706 373.706-68.016-.107.108-67.854 373.652-373.706zM507.365 480.957v96.094H267.156v-96.094h240.21zm144.222-192.081v95.932h-384.43v-95.932h384.376z"/></svg>